{
  "accessors": [
    {
      "bufferView": 2,
      "componentType": 5126,
      "count": 5654,
      "max": [
        0.14756092429161072,
        -1.2015799283981323,
        0.1475609391927719
      ],
      "min": [
        -0.14756092429161072,
        -1.4968222379684448,
        -0.1475609391927719
      ],
      "type": "VEC3"
    },
    {
      "bufferView": 2,
      "byteOffset": 67848,
      "componentType": 5126,
      "count": 5654,
      "max": [
        0.9995927214622498,
        1.0,
        0.9995927214622498
      ],
      "min": [
        -0.9995927810668945,
        -1.0,
        -0.9995928406715393
      ],
      "type": "VEC3"
    },
    {
      "bufferView": 1,
      "componentType": 5126,
      "count": 5654,
      "max": [
        1.000000238418579,
        1.0
      ],
      "min": [
        0.0,
        0.0
      ],
      "type": "VEC2"
    },
    {
      "bufferView": 0,
      "componentType": 5125,
      "count": 32400,
      "type": "SCALAR"
    },
    {
      "bufferView": 2,
      "byteOffset": 135696,
      "componentType": 5126,
      "count": 3480,
      "max": [
        0.3955518305301666,
        3.0069921016693115,
        0.3955518305301666
      ],
      "min": [
        -0.3955518305301666,
        0.14990118145942688,
        -0.3955518305301666
      ],
      "type": "VEC3"
    },
    {
      "bufferView": 2,
      "byteOffset": 177456,
      "componentType": 5126,
      "count": 3480,
      "max": [
        1.0,
        0.9979993104934692,
        1.0
      ],
      "min": [
        -1.0,
        -0.9979994893074036,
        -1.0
      ],
      "type": "VEC3"
    },
    {
      "bufferView": 1,
      "byteOffset": 45232,
      "componentType": 5126,
      "count": 3480,
      "max": [
        0.0,
        1.0
      ],
      "min": [
        0.0,
        1.0
      ],
      "type": "VEC2"
    },
    {
      "bufferView": 0,
      "byteOffset": 129600,
      "componentType": 5125,
      "count": 20694,
      "type": "SCALAR"
    },
    {
      "bufferView": 2,
      "byteOffset": 219216,
      "componentType": 5126,
      "count": 4800,
      "max": [
        0.38648721575737,
        2.9926061630249023,
        0.3952292203903198
      ],
      "min": [
        -4.6406569480896,
        0.1342458724975586,
        -0.3959079384803772
      ],
      "type": "VEC3"
    },
    {
      "bufferView": 2,
      "byteOffset": 276816,
      "componentType": 5126,
      "count": 4800,
      "max": [
        0.9999951124191284,
        0.9981935024261475,
        1.0
      ],
      "min": [
        -0.9999951124191284,
        -0.9981856346130371,
        -1.0
      ],
      "type": "VEC3"
    },
    {
      "bufferView": 1,
      "byteOffset": 73072,
      "componentType": 5126,
      "count": 4800,
      "max": [
        0.0,
        1.0
      ],
      "min": [
        0.0,
        1.0
      ],
      "type": "VEC2"
    },
    {
      "bufferView": 0,
      "byteOffset": 212376,
      "componentType": 5125,
      "count": 28416,
      "type": "SCALAR"
    },
    {
      "bufferView": 2,
      "byteOffset": 334416,
      "componentType": 5126,
      "count": 933,
      "max": [
        0.7285295724868774,
        0.02000003680586815,
        1.4880504608154297
      ],
      "min": [
        -0.6507720351219177,
        -0.019999975338578224,
        1.2734495401382446
      ],
      "type": "VEC3"
    },
    {
      "bufferView": 2,
      "byteOffset": 345612,
      "componentType": 5126,
      "count": 933,
      "max": [
        0.7798537611961365,
        1.0,
        1.0
      ],
      "min": [
        -0.8168449997901917,
        -1.0,
        -1.0
      ],
      "type": "VEC3"
    },
    {
      "bufferView": 1,
      "byteOffset": 111472,
      "componentType": 5126,
      "count": 933,
      "max": [
        1.0,
        1.0
      ],
      "min": [
        0.0,
        0.0
      ],
      "type": "VEC2"
    },
    {
      "bufferView": 0,
      "byteOffset": 326040,
      "componentType": 5125,
      "count": 5076,
      "type": "SCALAR"
    },
    {
      "bufferView": 2,
      "byteOffset": 356808,
      "componentType": 5126,
      "count": 793,
      "max": [
        1.2000000476837158,
        0.20000004768371582,
        1.1999999284744263
      ],
      "min": [
        -1.2000000476837158,
        -0.20000004768371582,
        -1.2000000476837158
      ],
      "type": "VEC3"
    },
    {
      "bufferView": 2,
      "byteOffset": 366324,
      "componentType": 5126,
      "count": 793,
      "max": [
        1.0,
        0.9999628663063049,
        1.0
      ],
      "min": [
        -1.0,
        -0.9999628663063049,
        -1.0
      ],
      "type": "VEC3"
    },
    {
      "bufferView": 1,
      "byteOffset": 118936,
      "componentType": 5126,
      "count": 793,
      "max": [
        1.0,
        1.0
      ],
      "min": [
        0.0,
        0.0
      ],
      "type": "VEC2"
    },
    {
      "bufferView": 0,
      "byteOffset": 346344,
      "componentType": 5125,
      "count": 4320,
      "type": "SCALAR"
    },
    {
      "bufferView": 2,
      "byteOffset": 375840,
      "componentType": 5126,
      "count": 2880,
      "max": [
        1.2000000476837158,
        0.20000004768371582,
        1.2000000476837158
      ],
      "min": [
        -1.2000000476837158,
        -0.20000004768371582,
        -1.2000000476837158
      ],
      "type": "VEC3"
    },
    {
      "bufferView": 2,
      "byteOffset": 410400,
      "componentType": 5126,
      "count": 2880,
      "max": [
        0.9646908640861511,
        0.9658372402191162,
        0.9646910429000854
      ],
      "min": [
        -0.9646908044815063,
        -0.9658374190330505,
        -0.9646909236907959
      ],
      "type": "VEC3"
    },
    {
      "bufferView": 1,
      "byteOffset": 125280,
      "componentType": 5126,
      "count": 2880,
      "max": [
        1.0,
        1.0
      ],
      "min": [
        0.0,
        0.0
      ],
      "type": "VEC2"
    },
    {
      "bufferView": 0,
      "byteOffset": 363624,
      "componentType": 5125,
      "count": 4320,
      "type": "SCALAR"
    },
    {
      "bufferView": 2,
      "byteOffset": 444960,
      "componentType": 5126,
      "count": 5654,
      "max": [
        0.14756092429161072,
        -1.2015799283981323,
        0.1475609391927719
      ],
      "min": [
        -0.14756092429161072,
        -1.4968222379684448,
        -0.1475609391927719
      ],
      "type": "VEC3"
    },
    {
      "bufferView": 2,
      "byteOffset": 512808,
      "componentType": 5126,
      "count": 5654,
      "max": [
        0.9995927214622498,
        1.0,
        0.9995927214622498
      ],
      "min": [
        -0.9995927810668945,
        -1.0,
        -0.9995928406715393
      ],
      "type": "VEC3"
    },
    {
      "bufferView": 1,
      "byteOffset": 148320,
      "componentType": 5126,
      "count": 5654,
      "max": [
        1.000000238418579,
        1.0
      ],
      "min": [
        0.0,
        0.0
      ],
      "type": "VEC2"
    },
    {
      "bufferView": 0,
      "byteOffset": 380904,
      "componentType": 5125,
      "count": 32400,
      "type": "SCALAR"
    }
  ],
  "asset": {
    "extras": {
      "author": "kdrkndmr24 (https://sketchfab.com/kdrkndmr24)",
      "license": "CC-BY-4.0 (http://creativecommons.org/licenses/by/4.0/)",
      "source": "https://sketchfab.com/3d-models/red-velvet-rope-b833f7027d864ccba601e64cb8d2991e",
      "title": "red velvet rope"
    },
    "generator": "Sketchfab-15.5.0",
    "version": "2.0"
  },
  "bufferViews": [
    {
      "buffer": 0,
      "byteLength": 510504,
      "name": "floatBufferViews",
      "target": 34963
    },
    {
      "buffer": 0,
      "byteLength": 193552,
      "byteOffset": 510504,
      "byteStride": 8,
      "name": "floatBufferViews",
      "target": 34962
    },
    {
      "buffer": 0,
      "byteLength": 580656,
      "byteOffset": 704056,
      "byteStride": 12,
      "name": "floatBufferViews",
      "target": 34962
    }
  ],
  "buffers": [
    {
      "byteLength": 1284712,
      "uri": "scene.bin"
    }
  ],
  "materials": [
    {
      "doubleSided": true,
      "name": "Material.003",
      "pbrMetallicRoughness": {
        "baseColorFactor": [
          0.799103,
          0.327778,
          0.0630101,
          1.0
        ],
        "roughnessFactor": 0.2
      }
    },
    {
      "doubleSided": true,
      "name": "Material.004",
      "pbrMetallicRoughness": {
        "baseColorFactor": [
          0.799103,
          0.327778,
          0.0630101,
          1.0
        ],
        "roughnessFactor": 0.2
      }
    },
    {
      "doubleSided": true,
      "name": "Material.007",
      "pbrMetallicRoughness": {
        "baseColorFactor": [
          0.8,
          0.0,
          0.00369893,
          1.0
        ],
        "metallicFactor": 0.0
      }
    }
  ],
  "meshes": [
    {
      "name": "Object_0",
      "primitives": [
        {
          "attributes": {
            "NORMAL": 1,
            "POSITION": 0,
            "TEXCOORD_0": 2
          },
          "indices": 3,
          "material": 0,
          "mode": 4
        }
      ]
    },
    {
      "name": "Object_1",
      "primitives": [
        {
          "attributes": {
            "NORMAL": 5,
            "POSITION": 4,
            "TEXCOORD_0": 6
          },
          "indices": 7,
          "material": 1,
          "mode": 4
        }
      ]
    },
    {
      "name": "Object_2",
      "primitives": [
        {
          "attributes": {
            "NORMAL": 9,
            "POSITION": 8,
            "TEXCOORD_0": 10
          },
          "indices": 11,
          "material": 0,
          "mode": 4
        }
      ]
    },
    {
      "name": "Object_3",
      "primitives": [
        {
          "attributes": {
            "NORMAL": 13,
            "POSITION": 12,
            "TEXCOORD_0": 14
          },
          "indices": 15,
          "material": 2,
          "mode": 4
        }
      ]
    },
    {
      "name": "Object_4",
      "primitives": [
        {
          "attributes": {
            "NORMAL": 17,
            "POSITION": 16,
            "TEXCOORD_0": 18
          },
          "indices": 19,
          "material": 0,
          "mode": 4
        }
      ]
    },
    {
      "name": "Object_5",
      "primitives": [
        {
          "attributes": {
            "NORMAL": 21,
            "POSITION": 20,
            "TEXCOORD_0": 22
          },
          "indices": 23,
          "material": 0,
          "mode": 4
        }
      ]
    },
    {
      "name": "Object_6",
      "primitives": [
        {
          "attributes": {
            "NORMAL": 25,
            "POSITION": 24,
            "TEXCOORD_0": 26
          },
          "indices": 27,
          "material": 0,
          "mode": 4
        }
      ]
    }
  ],
  "nodes": [
    {
      "children": [
        1
      ],
      "matrix": [
        1.0,
        0.0,
        0.0,
        0.0,
        0.0,
        2.220446049250313e-16,
        -1.0,
        0.0,
        0.0,
        1.0,
        2.220446049250313e-16,
        0.0,
        0.0,
        0.0,
        0.0,
        1.0
      ],
      "name": "Sketchfab_model"
    },
    {
      "children": [
        2
      ],
      "name": "root"
    },
    {
      "children": [
        3,
        5,
        7,
        9,
        11,
        13,
        15
      ],
      "matrix": [
        1.0,
        0.0,
        0.0,
        0.0,
        0.0,
        2.220446049250313e-16,
        1.0,
        0.0,
        0.0,
        -1.0,
        2.220446049250313e-16,
        0.0,
        0.0,
        0.0,
        0.0,
        1.0
      ],
      "name": "GLTF_SceneRootNode"
    },
    {
      "children": [
        4
      ],
      "matrix": [
        0.26365959644317627,
        0.0,
        0.0,
        0.0,
        0.0,
        0.26365959644317627,
        0.0,
        0.0,
        0.0,
        0.0,
        0.26365959644317627,
        0.0,
        0.0,
        1.4173177480697632,
        0.0,
        1.0
      ],
      "name": "Sphere_0"
    },
    {
      "mesh": 0,
      "name": "Object_4"
    },
    {
      "children": [
        6
      ],
      "matrix": [
        0.315879225730896,
        0.0,
        0.0,
        0.0,
        0.0,
        0.315879225730896,
        0.0,
        0.0,
        0.0,
        0.0,
        0.315879225730896,
        0.0,
        0.0,
        0.08264841139316559,
        0.0,
        1.0
      ],
      "name": "Circle_1"
    },
    {
      "mesh": 1,
      "name": "Object_6"
    },
    {
      "children": [
        8
      ],
      "matrix": [
        -0.3158792257308792,
        0.0,
        1.0292651963064766e-07,
        0.0,
        -0.0,
        0.315879225730896,
        0.0,
        0.0,
        -1.0292651963064766e-07,
        0.0,
        -0.3158792257308792,
        0.0,
        -1.5190714597702026,
        0.07921566814184189,
        -0.0036997031420469284,
        1.0
      ],
      "name": "Circle.002_2"
    },
    {
      "mesh": 2,
      "name": "Object_8"
    },
    {
      "children": [
        10
      ],
      "matrix": [
        0.9799380898475647,
        0.0,
        0.0,
        0.0,
        0.0,
        0.0,
        1.0,
        0.0,
        0.0,
        -1.0,
        0.0,
        0.0,
        -0.7960250377655029,
        2.2186248302459717,
        0.0,
        1.0
      ],
      "name": "Circle.003_3"
    },
    {
      "mesh": 3,
      "name": "Object_10"
    },
    {
      "children": [
        12
      ],
      "matrix": [
        0.021111544221639633,
        0.0,
        0.0,
        0.0,
        0.0,
        0.0016579498356416897,
        0.01832260904233419,
        0.0,
        0.0,
        -0.01832260904233419,
        0.0016579498356416897,
        0.0,
        -1.4603469371795654,
        0.981033980846405,
        0.0,
        1.0
      ],
      "name": "Circle.001_4"
    },
    {
      "mesh": 4,
      "name": "Object_12"
    },
    {
      "children": [
        14
      ],
      "matrix": [
        0.020180266350507736,
        0.0,
        0.0,
        0.0,
        0.0,
        0.0016579498356416897,
        0.01832260904233419,
        0.0,
        0.0,
        -0.01832260904233419,
        0.0016579498356416897,
        0.0,
        -0.05420733243227005,
        0.9841625094413757,
        0.0,
        1.0
      ],
      "name": "Circle.004_5"
    },
    {
      "mesh": 5,
      "name": "Object_14"
    },
    {
      "children": [
        16
      ],
      "matrix": [
        0.26365959644317627,
        0.0,
        0.0,
        0.0,
        0.0,
        0.26365959644317627,
        0.0,
        0.0,
        0.0,
        0.0,
        0.26365959644317627,
        0.0,
        -1.512444257736206,
        1.4132678508758545,
        0.0,
        1.0
      ],
      "name": "Sphere.001_6"
    },
    {
      "mesh": 6,
      "name": "Object_16"
    }
  ],
  "scene": 0,
  "scenes": [
    {
      "name": "Sketchfab_Scene",
      "nodes": [
        0
      ]
    }
  ]
}
