{
  "accessors": [
    {
      "bufferView": 2,
      "componentType": 5126,
      "count": 52616,
      "max": [
        0.02019464783370495,
        0.21257109940052032,
        0.0280650295317173
      ],
      "min": [
        -0.020209554582834244,
        -0.1180972307920456,
        -0.09540696442127228
      ],
      "type": "VEC3"
    },
    {
      "bufferView": 2,
      "byteOffset": 631392,
      "componentType": 5126,
      "count": 52616,
      "max": [
        1.0,
        1.0,
        1.0
      ],
      "min": [
        -1.0,
        -1.0,
        -1.0
      ],
      "type": "VEC3"
    },
    {
      "bufferView": 3,
      "componentType": 5126,
      "count": 52616,
      "max": [
        1.0,
        1.0,
        1.0,
        1.0
      ],
      "min": [
        -1.0,
        -1.0,
        -1.0,
        -1.0
      ],
      "type": "VEC4"
    },
    {
      "bufferView": 1,
      "componentType": 5126,
      "count": 52616,
      "max": [
        0.999755859375,
        0.9983022212982178
      ],
      "min": [
        0.000244140625,
        0.000244140625
      ],
      "type": "VEC2"
    },
    {
      "bufferView": 0,
      "componentType": 5125,
      "count": 223056,
      "type": "SCALAR"
    }
  ],
  "asset": {
    "extras": {
      "author": "Blarb (https://sketchfab.com/Blarb)",
      "license": "CC-BY-4.0 (http://creativecommons.org/licenses/by/4.0/)",
      "source": "https://sketchfab.com/3d-models/highpoly-colt-single-action-army-45-b02548a3ecb84e3cbcfc6f4e2cf03992",
      "title": "Highpoly Colt Single Action Army .45"
    },
    "generator": "Sketchfab-13.3.0",
    "version": "2.0"
  },
  "bufferViews": [
    {
      "buffer": 0,
      "byteLength": 892224,
      "name": "floatBufferViews",
      "target": 34963
    },
    {
      "buffer": 0,
      "byteLength": 420928,
      "byteOffset": 892224,
      "byteStride": 8,
      "name": "floatBufferViews",
      "target": 34962
    },
    {
      "buffer": 0,
      "byteLength": 1262784,
      "byteOffset": 1313152,
      "byteStride": 12,
      "name": "floatBufferViews",
      "target": 34962
    },
    {
      "buffer": 0,
      "byteLength": 841856,
      "byteOffset": 2575936,
      "byteStride": 16,
      "name": "floatBufferViews",
      "target": 34962
    }
  ],
  "buffers": [
    {
      "byteLength": 3417792,
      "uri": "scene.bin"
    }
  ],
  "images": [
    {
      "uri": "textures/Colt_SAA_baseColor.png"
    },
    {
      "uri": "textures/Colt_SAA_metallicRoughness.png"
    },
    {
      "uri": "textures/Colt_SAA_normal.png"
    }
  ],
  "materials": [
    {
      "doubleSided": true,
      "name": "Colt_SAA",
      "normalTexture": {
        "index": 2
      },
      "occlusionTexture": {
        "index": 1
      },
      "pbrMetallicRoughness": {
        "baseColorTexture": {
          "index": 0
        },
        "metallicRoughnessTexture": {
          "index": 1
        }
      }
    }
  ],
  "meshes": [
    {
      "name": "Wheel.010_Colt SAA_0",
      "primitives": [
        {
          "attributes": {
            "NORMAL": 1,
            "POSITION": 0,
            "TANGENT": 2,
            "TEXCOORD_0": 3
          },
          "indices": 4,
          "material": 0,
          "mode": 4
        }
      ]
    }
  ],
  "nodes": [
    {
      "children": [
        1
      ],
      "matrix": [
        1.0,
        0.0,
        0.0,
        0.0,
        0.0,
        2.220446049250313e-16,
        -1.0,
        0.0,
        0.0,
        1.0,
        2.220446049250313e-16,
        0.0,
        0.0,
        0.0,
        0.0,
        1.0
      ],
      "name": "Sketchfab_model"
    },
    {
      "children": [
        2
      ],
      "matrix": [
        0.009999999776482582,
        0.0,
        0.0,
        0.0,
        0.0,
        0.0,
        0.009999999776482582,
        0.0,
        0.0,
        -0.009999999776482582,
        0.0,
        0.0,
        0.0,
        0.0,
        0.0,
        1.0
      ],
      "name": "a1184bbd79fd4d00bdad64db114d87dd.fbx"
    },
    {
      "children": [
        3
      ],
      "name": "RootNode"
    },
    {
      "children": [
        4
      ],
      "matrix": [
        99.99999999997875,
        -6.516827966151588e-05,
        0.0,
        0.0,
        -1.0617260404688505e-11,
        -1.629206793918314e-05,
        -99.99999999999868,
        0.0,
        6.516827966151501e-05,
        99.99999999997745,
        -1.629206793918314e-05,
        0.0,
        2.2537249149567505e-15,
        10.178740501403809,
        -1.289372205734253,
        1.0
      ],
      "name": "Wheel.010"
    },
    {
      "mesh": 0,
      "name": "Wheel.010_Colt SAA_0"
    }
  ],
  "samplers": [
    {
      "magFilter": 9729,
      "minFilter": 9987,
      "wrapS": 10497,
      "wrapT": 10497
    }
  ],
  "scene": 0,
  "scenes": [
    {
      "name": "Sketchfab_Scene",
      "nodes": [
        0
      ]
    }
  ],
  "textures": [
    {
      "sampler": 0,
      "source": 0
    },
    {
      "sampler": 0,
      "source": 1
    },
    {
      "sampler": 0,
      "source": 2
    }
  ]
}
